<svg xmlns="http://www.w3.org/2000/svg">
  <defs>
    <symbol id="icon-basketball" viewBox="0 0 1200 1200">
    <svg xmlns="http://www.w3.org/2000/svg" data-name="Livello 1" viewBox="0 0 100 125" x="0px" y="0px">
    <path d="M83.97464,69.15566a38.966,38.966,0,0,0,2.81026-32.148,1.36608,1.36608,0,0,0-.0568-.16093A39.18529,39.18529,0,0,0,73.72371,19.05275a1.38189,1.38189,0,0,0-.32687-.25076,38.94727,38.94727,0,0,0-39.0641-4.526,1.39916,1.39916,0,0,0-.1992.08728A39.02253,39.02253,0,0,0,12.17788,59.57368c.00215.01312.00683.02523.00934.03822A39.0948,39.0948,0,0,0,25.55884,80.38254a1.391,1.391,0,0,0,.29235.23557,38.8212,38.8212,0,0,0,24.148,8.39408l.00016,0h.00082A39.03568,39.03568,0,0,0,83.79721,69.46885,1.36836,1.36836,0,0,0,83.97464,69.15566Zm-2.38717-1.463a18.03039,18.03039,0,0,1-6.77195,2.67174c-4.38417.89743-11.85335,1.19722-22.54118-2.47425-6.30668-2.16632-11.76091-2.47232-16.2638-.92247-.25222-.60606-.49682-1.21709-.72714-1.83734a54.57366,54.57366,0,0,1-1.85315-6.08664q1.55306-.25793,3.19576-.56763a137.13837,137.13837,0,0,0,48.058-18.8944,36.17827,36.17827,0,0,1-3.09652,28.111ZM45.95162,85.98629a36.02487,36.02487,0,0,1-17.76125-7.09594,15.00871,15.00871,0,0,1,6.41452-8.22253A50.664,50.664,0,0,0,45.95162,85.98629Zm37.792-49.13191A134.15745,134.15745,0,0,1,36.19013,55.71051q-1.728.32858-3.35778.59441-.57372-2.96084-.873-6.0807,7.02842-2.90975,16.21718-11.59551c2.19085-2.07362,4.24725-4.4063,6.23616-6.66206,5.835-6.61832,10.8883-12.34147,17.65233-10.66108A36.39415,36.39415,0,0,1,83.74358,36.85438ZM13.78614,50a36.20719,36.20719,0,0,1,.8364-7.7444c.975,3.18819,2.97939,7.14837,7.0651,8.74309a10.33076,10.33076,0,0,0,3.789.68647,14.67923,14.67923,0,0,0,3.76384-.53043q.3,2.84985.82432,5.57642a112.79112,112.79112,0,0,1-15.3955,1.22745A36.2,36.2,0,0,1,13.78614,50Zm53.8651-31.61066C61.73181,19.43833,56.961,24.84482,52.31369,30.116c-1.94791,2.20917-3.96168,4.49362-6.061,6.48034-6.05224,5.72855-10.802,8.98251-14.51123,10.68311q-.13447-2.536-.09674-5.16089a89.25235,89.25235,0,0,1,4.26654-25.47937,36.17382,36.17382,0,0,1,31.74,1.75013ZM32.44306,18.3366a92.21669,92.21669,0,0,0-3.595,23.653q-.05423,3.23011.14954,6.33435a9.58541,9.58541,0,0,1-6.28431.0711c-5.498-2.1377-6.18752-10.75095-6.19708-10.87953a1.38137,1.38137,0,0,0-.2481-.69171A36.42825,36.42825,0,0,1,32.44306,18.3366ZM15.417,60.75705a116.31441,116.31441,0,0,0,15.23847-1.28078A57.489,57.489,0,0,0,32.643,66.05852c.25589.691.52909,1.37079.81065,2.04513-.0486.02694-.098.05242-.14632.07987a17.367,17.367,0,0,0-7.41487,8.81484A36.30032,36.30032,0,0,1,15.417,60.75705ZM50.49087,86.20763A48.20151,48.20151,0,0,1,37.1648,69.53475c3.86221-1.24636,8.62313-.91374,14.20062,1.00208a53.51962,53.51962,0,0,0,17.34429,3.22466,30.45209,30.45209,0,0,0,9.82936-1.49391A36.1717,36.1717,0,0,1,50.49087,86.20763Z"/><text x="0" y="115" fill="#000000" font-size="5px" font-weight="bold" font-family="'Helvetica Neue', Helvetica, Arial-Unicode, Arial, Sans-serif">Created by Francesco De Mento</text><text x="0" y="120" fill="#000000" font-size="5px" font-weight="bold" font-family="'Helvetica Neue', Helvetica, Arial-Unicode, Arial, Sans-serif">from the Noun Project</text></svg>
    </symbol>

    <symbol id="icon-court" viewBox="0 0 1200 1200">
    <svg xmlns="http://www.w3.org/2000/svg" xmlns:xlink="http://www.w3.org/1999/xlink" xml:space="preserve" style="shape-rendering:geometricPrecision;text-rendering:geometricPrecision;image-rendering:optimizeQuality;" viewBox="0 0 1.70666 2.133325" x="0px" y="0px" fill-rule="evenodd" clip-rule="evenodd"><defs><style type="text/css">
    .fil0 {fill:black}
    </style></defs><g><path class="fil0" d="M1.68664 1.42734l-1.66663 0c-0.0110394,0 -0.02,-0.00897244 -0.02,-0.02l0 -1.10803c0,-0.0110394 0.00896063,-0.02 0.02,-0.02l1.66663 0c0.0110394,0 0.02,0.00896063 0.02,0.02l0 1.10803c0,0.0110394 -0.00895276,0.02 -0.02,0.02zm-1.64663 -0.0400157l1.62663 0 0 -1.06802 -1.62663 0 0 1.06802z"/><path class="fil0" d="M0.853331 1.42735c-0.0110394,0 -0.02,-0.0089685 -0.02,-0.02l0 -0.30263c0,-0.0263307 0.04,-0.0263228 0.04,0l0 0.302638c0,0.0110394 -0.00896063,0.0199921 -0.02,0.0199921zm0 -0.805409c-0.0110394,0 -0.02,-0.00896063 -0.02,-0.02l0 -0.30263c0,-0.0263307 0.04,-0.0263307 0.04,0l0 0.30263c0,0.0110551 -0.00896063,0.02 -0.02,0.02z"/><path class="fil0" d="M1.68665 1.25722l-0.231843 0c-0.138878,0 -0.251874,-0.112984 -0.251874,-0.251862l0 -0.304063c0,-0.138878 0.113004,-0.251846 0.251874,-0.251846l0.231843 0c0.0110394,0 0.02,0.00896063 0.02,0.02l0 0.767772c0,0.0110394 -0.00896063,0.02 -0.02,0.02zm-0.231843 -0.767772c-0.116819,0 -0.211862,0.0950394 -0.211862,0.211846l0 0.304063c0,0.116819 0.0950394,0.211846 0.211862,0.211846l0.211843 0 0 -0.727756 -0.211843 0z"/><path class="fil0" d="M1.68665 1.03769l-0.268165 0c-0.0110394,0 -0.02,-0.00897244 -0.02,-0.02l0 -0.328724c0,-0.0110394 0.00897244,-0.02 0.02,-0.02l0.268165 0c0.0110394,0 0.02,0.00896063 0.02,0.02l0 0.328724c0,0.0110394 -0.00896063,0.02 -0.02,0.02zm-0.24815 -0.04l0.22815 0 0 -0.288724 -0.22815 0 0 0.288724z"/><path class="fil0" d="M0.251866 1.25722l-0.231862 0c-0.0110394,0 -0.02,-0.00897244 -0.02,-0.02l0 -0.767772c0,-0.0110394 0.00896063,-0.02 0.02,-0.02l0.231862 0c0.138874,0 0.251843,0.112984 0.251843,0.251846l0 0.304063c1.1811e-005,0.138878 -0.112972,0.251862 -0.251843,0.251862zm-0.211862 -0.0400157l0.211862 0c0.116815,0 0.211846,-0.0950276 0.211846,-0.211846l-7.87402e-006 -0.304063c0,-0.116819 -0.0950394,-0.211846 -0.211846,-0.211846l-0.211854 0 0 0.727756z"/><path class="fil0" d="M0.288181 1.03769l-0.268177 0c-0.0110394,0 -0.02,-0.00897244 -0.02,-0.02l0 -0.328724c0,-0.0110394 0.00896063,-0.02 0.02,-0.02l0.268165 0c0.0110394,0 0.02,0.00896063 0.02,0.02l0 0.328724c1.1811e-005,0.0110394 -0.00894488,0.02 -0.0199882,0.02zm-0.248177 -0.04l0.228165 0 0 -0.288724 -0.228165 0 0 0.288724z"/><path class="fil0" d="M0.826024 1.12323c-0.00802756,0 -0.0156142,-0.00487795 -0.0186693,-0.0128031 -0.0605906,-0.157138 -0.060748,-0.356811 -0.000385827,-0.514106 0.00943701,-0.0245866 0.0467717,-0.0102598 0.0373425,0.0143228 -0.0567717,0.148035 -0.0567362,0.337539 0.000362205,0.48537 0.00507087,0.0131339 -0.00485039,0.0272165 -0.0186496,0.0272165z"/><path class="fil0" d="M1.00712 1.07216c-0.00343307,0 -0.00690157,-0.000874016 -0.0100827,-0.00273228 -0.16515,-0.0965157 -0.164846,-0.335961 0,-0.432197 0.0227323,-0.0132677 0.0429213,0.0212402 0.0201772,0.0345236 -0.138606,0.0809685 -0.138618,0.282157 0,0.363122 0.0176102,0.0102874 0.010122,0.0372835 -0.0100945,0.0372835z"/><path class="fil0" d="M0.85311 0.939315c-0.0917638,0 -0.180917,-0.016374 -0.257819,-0.0473346 -0.0244173,-0.00982677 -0.00950787,-0.0469331 0.0149449,-0.0371063 0.147646,0.0593386 0.338665,0.0592874 0.486213,-0.000177165 0.0244094,-0.00983858 0.0393858,0.0272165 0.0149724,0.0370787 -0.0770118,0.0311063 -0.166331,0.0475394 -0.258311,0.0475394z"/><path class="fil0" d="M0.63226 0.993118c-0.0158189,0 -0.0255512,-0.017815 -0.0165827,-0.0311654 0.0440787,-0.0655984 0.0440748,-0.151709 0,-0.21726 -0.0146929,-0.0218583 0.0185,-0.0441535 0.0331929,-0.0223071 0.0818346,0.12172 0.0159567,0.270732 -0.0166102,0.270732z"/><path class="fil0" d="M0.853331 1.1247c-0.149638,0 -0.271374,-0.121748 -0.271374,-0.271374 0,-0.149638 0.121736,-0.27139 0.271374,-0.27139 0.149626,0 0.27137,0.121736 0.27137,0.27139 0,0.149626 -0.121744,0.271374 -0.27137,0.271374zm0 -0.502764c-0.127587,0 -0.231374,0.103807 -0.231374,0.23139 0,0.127583 0.103787,0.231358 0.231374,0.231358 0.127583,0 0.231354,-0.103791 0.231354,-0.231358 0,-0.127583 -0.103772,-0.23139 -0.231354,-0.23139z"/></g><text x="0" y="16.70666" fill="#000000" font-size="5px" font-weight="bold" font-family="'Helvetica Neue', Helvetica, Arial-Unicode, Arial, Sans-serif">Created by Amir Ali</text><text x="0" y="21.70666" fill="#000000" font-size="5px" font-weight="bold" font-family="'Helvetica Neue', Helvetica, Arial-Unicode, Arial, Sans-serif">from the Noun Project</text></svg>
    </symbol>

    <symbol id="icon-cup" viewBox="0 0 1200 1200">
    <svg xmlns="http://www.w3.org/2000/svg" viewBox="0 0 64 80" x="0px" y="0px"><g><path d="M41.63,15.85,35.91,14.5l-3.06-5h-1.7l-3.06,5-5.72,1.35-.53,1.63,3.83,4.46-.47,5.85,1.38,1L32,26.53l5.42,2.27,1.38-1-.47-5.85,3.83-4.46ZM36.54,21l-.24.73.38,4.64-4.3-1.79h-.76l-4.3,1.79.38-4.64L27.46,21l-3-3.53L29,16.35l.62-.46,2.42-4,2.42,4,.62.46,4.53,1.07Z"/><path d="M52.16,8.42,53,2.13,52,1H12L11,2.13l.83,6.29C6.52,10,3.16,16.16,4.1,23S9.87,34.78,15.33,35L16,40.13l1.65.62s1.63-1.2,8.89-1.61L23.64,53.67a20.09,20.09,0,0,0-5.09,1.44L18,56v6l1,1H45l1-1V56l-.55-.89a20.09,20.09,0,0,0-5.09-1.44L37.45,39.14c7.17.41,8.83,1.57,8.84,1.57h0l1.7-.58L48.67,35C54.13,34.78,59,29.74,59.9,23S57.48,10,52.16,8.42ZM6.08,22.73c-.79-5.72,1.82-10.88,6-12.3l3,22.5C10.7,32.6,6.86,28.36,6.08,22.73ZM44,61H20V56.67a24.08,24.08,0,0,1,4.65-1.14A47.16,47.16,0,0,1,32,55a47.16,47.16,0,0,1,7.35.53h0A24.12,24.12,0,0,1,44,56.67Zm-6-7.67-.53,0-1.2-.11-.61-.05-1.26-.06-.57,0c-.61,0-1.23,0-1.87,0s-1.26,0-1.87,0l-.57,0c-.43,0-.84,0-1.26.06l-.61.05-1.2.11-.53,0-.21,0L28.6,39.06l.93,0H30c1.31,0,2.67,0,4,0h.48l.93,0,2.85,14.29Zm8.15-14.84c-1.51-.54-4.43-1.19-9.93-1.41-2.69-.11-5.83-.11-8.52,0-5.5.22-8.42.87-9.93,1.41L13.14,3H50.86ZM57.92,22.73c-.78,5.63-4.63,9.86-9,10.2l3-22.5C56.1,11.85,58.71,17,57.92,22.73Z"/></g><text x="0" y="79" fill="#000000" font-size="5px" font-weight="bold" font-family="'Helvetica Neue', Helvetica, Arial-Unicode, Arial, Sans-serif">Created by Iconbox</text><text x="0" y="84" fill="#000000" font-size="5px" font-weight="bold" font-family="'Helvetica Neue', Helvetica, Arial-Unicode, Arial, Sans-serif">from the Noun Project</text></svg>
    </symbol>

    <symbol id="icon-player" viewBox="0 0 1200 1200">
    <svg xmlns="http://www.w3.org/2000/svg" xmlns:xlink="http://www.w3.org/1999/xlink" xml:space="preserve" version="1.1" style="shape-rendering:geometricPrecision;text-rendering:geometricPrecision;image-rendering:optimizeQuality;" viewBox="0 0 342 466.25" x="0px" y="0px" fill-rule="evenodd" clip-rule="evenodd"><defs><style type="text/css">
    .fil1 {fill:black}
    .fil0 {fill:black;fill-rule:nonzero}
    </style></defs><g><path class="fil0" d="M172 191l3 57 30 54c5,9 2,21 -7,27l-50 36c-22,15 -46,-18 -24,-34l36 -25 -16 -29 -18 42c-2,5 -6,8 -10,10l-67 40c-23,14 -44,-21 -21,-35l63 -37 18 -43 -4 -73 -42 -1c-5,0 -9,-2 -12,-6l-46 -53c-14,-16 11,-38 25,-21l41 47 66 2c1,0 3,0 4,1l112 26c21,5 13,37 -8,32l-73 -17z"/><circle class="fil1" cx="126" cy="106" r="38"/><path class="fil1" d="M35 34c19,0 35,16 35,35 0,20 -16,35 -35,35 -19,0 -35,-15 -35,-35 0,-19 16,-35 35,-35zm0 8c15,0 28,12 28,27 0,16 -13,28 -28,28 -15,0 -28,-12 -28,-28 0,-15 13,-27 28,-27z"/><path class="fil1" d="M276 114l-4 6 -7 -12 8 -12 5 9 -2 9zm60 -70l-143 0 18 101 61 0 23 -88 41 0 0 -13zm-136 13l6 0 1 3 -6 7 -1 -10zm14 0l12 0 3 5 -8 11 -9 -13 2 -3zm23 0l9 0 5 8 -8 11 -9 -14 3 -5zm13 0l6 0 -3 4 -3 -4zm11 0l7 0 3 4 -9 13 -7 -9 6 -8zm17 0l13 0 -2 8 -5 7 -8 -11 2 -4zm2 43l-5 -7 10 -15 0 1 -5 21zm-78 -28l8 -9 9 14 -8 11 -8 -11 -1 -5zm3 14l3 5 -2 3 -1 -8zm2 14l4 -5 9 14 -7 11 -3 -5 -3 -15zm5 28l1 -1 7 10 -2 4 -4 0 -2 -13zm15 13l-2 -4 7 -11 8 12 -2 3 -11 0zm19 0l-1 -3 7 -11 8 12 -2 2 -12 0zm20 0l-2 -2 8 -13 0 1 -3 14 -3 0zm16 -66l-9 15 -9 -12 10 -14 8 11zm-12 18l-8 12 -8 -12 8 -12 8 12zm-10 -15l-8 11 -7 -10 8 -11 7 10zm10 45l-8 12 -8 -11 8 -12 8 11zm-10 -15l-8 12 -8 -12 8 -12 8 12zm-10 -15l-8 12 -7 -10 8 -12 7 10zm-9 -14l-8 12 -10 -14 8 -12 10 14zm-20 1l9 15 -7 11 -10 -15 8 -11zm12 18l6 10 -7 12 -7 -11 8 -11zm9 14l8 12 -8 11 -8 -12 8 -11zm-19 1l7 10 -8 11 -7 -11 8 -10z"/><rect class="fil1" x="317" width="24.6295" height="162.686"/></g><text x="0" y="388" fill="#000000" font-size="5px" font-weight="bold" font-family="'Helvetica Neue', Helvetica, Arial-Unicode, Arial, Sans-serif">Created by indra anis</text><text x="0" y="393" fill="#000000" font-size="5px" font-weight="bold" font-family="'Helvetica Neue', Helvetica, Arial-Unicode, Arial, Sans-serif">from the Noun Project</text></svg>
    </symbol>

    <symbol id="icon-stats" viewBox="0 0 1200 1200">
    <svg xmlns="http://www.w3.org/2000/svg" xmlns:xlink="http://www.w3.org/1999/xlink" version="1.1" x="0px" y="0px" viewBox="0 0 98 122.5" style="enable-background:new 0 0 98 98;" xml:space="preserve"><style type="text/css">
	.st0{fill-rule:evenodd;clip-rule:evenodd;}
    </style><path class="st0" d="M89.827,59.562c-2.001-2.871-4.58-5.103-7.473-6.651V28.153c0-0.796-0.646-1.442-1.442-1.442H67.827  c-0.796,0-1.442,0.646-1.442,1.442v22.982c-1.621,0.45-3.208,1.097-4.726,1.947v-2.117c0-0.796-0.646-1.442-1.442-1.442H47.133  c-0.796,0-1.442,0.646-1.442,1.442v40.963c0,0.796,0.646,1.442,1.442,1.442h13.084c0.797,0,1.442-0.645,1.443-1.441v-1.254  c2.063,1.151,4.327,1.962,6.721,2.389c1.278,0.229,2.558,0.341,3.829,0.341c4.361,0,8.612-1.326,12.265-3.872  c4.718-3.287,7.872-8.216,8.883-13.877C94.369,69.995,93.115,64.28,89.827,59.562z M87.461,61.21c0.36,0.517,0.692,1.047,0.995,1.59  c-0.137-0.042-0.275-0.077-0.415-0.107c-1.209-0.258-2.454-0.072-3.715,0.554c-0.36-0.592-0.738-1.178-1.135-1.754  c1.172-0.48,2.345-0.913,3.511-1.296C86.965,60.523,87.218,60.861,87.461,61.21z M80.51,55.203l0.009,0.003  c1.426,0.712,2.772,1.612,3.995,2.693c-1.034,0.369-2.07,0.774-3.106,1.214c-0.717-0.88-1.47-1.721-2.254-2.518  C79.697,56.162,80.15,55.698,80.51,55.203z M77.677,54.068c-0.193,0.179-0.413,0.356-0.662,0.529  c-0.404-0.346-0.814-0.682-1.23-1.007C76.423,53.716,77.055,53.876,77.677,54.068z M60.834,57.064  c0.171-0.081,0.324-0.195,0.451-0.334c0.072-0.052,0.145-0.104,0.219-0.155c1.984-1.383,4.144-2.325,6.366-2.848  c0.187-0.005,0.364-0.046,0.527-0.116c0.593-0.122,1.19-0.214,1.788-0.276c1.373,0.755,2.699,1.638,3.964,2.634  c-1.965,0.662-4.088,0.935-6.295,1.217c-3.097,0.397-6.45,0.827-9.741,2.421C58.924,58.679,59.835,57.827,60.834,57.064z   M53.81,68.594c0.168-0.939,0.404-1.854,0.704-2.74c4.234-4.594,8.837-5.185,13.704-5.809c2.797-0.358,5.671-0.727,8.368-1.938  c0.729,0.708,1.43,1.457,2.1,2.243c-3.043,1.474-6.047,3.235-8.918,5.236c-5.85,4.077-10.843,8.904-14.558,14.056  C53.631,76.213,53.132,72.389,53.81,68.594z M67.574,89.943c-2.275-0.574-4.39-1.559-6.261-2.898  c-0.14-0.163-0.316-0.295-0.515-0.383c-1.494-1.151-2.82-2.537-3.929-4.129c-0.027-0.039-0.053-0.077-0.08-0.116  c3.588-5.296,8.63-10.285,14.629-14.466c2.924-2.037,5.989-3.813,9.084-5.273c0.069,0.097,0.139,0.195,0.207,0.294  c0.449,0.645,0.874,1.301,1.272,1.967c-3.1,3.001-4.741,7.845-6.332,12.544C73.672,83.319,71.802,88.837,67.574,89.943z   M85.962,84.422c-0.929,1.017-1.978,1.939-3.136,2.745c-3.15,2.196-6.815,3.344-10.575,3.354c2.97-2.793,4.568-7.509,6.127-12.116  c1.369-4.042,2.778-8.201,5.04-10.797C86.102,73.185,87.042,79.182,85.962,84.422z M90.52,75.148  c-0.259,1.449-0.679,2.842-1.249,4.159c-0.117-4.473-1.336-9.148-3.545-13.538c0.62-0.286,1.187-0.371,1.714-0.258  c1.013,0.216,2.071,1.23,3.064,2.936C90.91,70.632,90.922,72.895,90.52,75.148z M40.964,42.674v49.254  c-0.001,0.796-0.646,1.441-1.442,1.441H26.438c-0.796,0-1.442-0.646-1.442-1.442V42.674c0-0.796,0.646-1.442,1.442-1.442h13.085  C40.319,41.233,40.964,41.878,40.964,42.674z M7.311,58.505c-1.273-1.273-2.06-3.031-2.06-4.974c0-1.943,0.787-3.701,2.06-4.974  c1.273-1.273,3.031-2.06,4.974-2.06c0.755,0,1.483,0.119,2.164,0.339l13.234-17.497c-1.081-1.237-1.737-2.856-1.737-4.627  c0-1.942,0.788-3.701,2.06-4.974c1.273-1.273,3.031-2.06,4.974-2.06c1.943,0,3.701,0.788,4.974,2.06  c1.273,1.273,2.06,3.031,2.06,4.974c0,0.46-0.044,0.909-0.128,1.345l9.171,5.294c1.236-1.076,2.852-1.728,4.619-1.728  c1.071,0,2.085,0.239,2.994,0.667l12.163-14.338c-0.93-1.193-1.485-2.693-1.485-4.323c0-1.942,0.787-3.701,2.06-4.974  c1.273-1.273,3.031-2.06,4.974-2.06c1.942,0,3.701,0.788,4.974,2.06c1.273,1.273,2.06,3.031,2.06,4.974  c0,1.943-0.787,3.701-2.06,4.974c-1.273,1.273-3.031,2.06-4.974,2.06c-1.216,0-2.359-0.309-3.357-0.852L58.965,32.023  c1.084,1.237,1.741,2.858,1.741,4.633c0,1.943-0.787,3.701-2.06,4.974c-1.273,1.273-3.031,2.06-4.974,2.06  c-1.943,0-3.701-0.787-4.974-2.06c-1.273-1.273-2.06-3.031-2.06-4.974c0-1.073,0.24-2.089,0.67-3L38.76,28.72  c-0.239,0.345-0.51,0.669-0.806,0.965c-1.273,1.273-3.031,2.06-4.974,2.06c-1.074,0-2.093-0.24-3.003-0.671L16.965,48.28  c0.101,0.089,0.198,0.182,0.294,0.277c1.273,1.273,2.06,3.031,2.06,4.974c0,1.942-0.788,3.701-2.06,4.974  c-1.273,1.273-3.031,2.06-4.974,2.06C10.343,60.565,8.584,59.778,7.311,58.505z M20.269,65.352v26.576  c0,0.796-0.646,1.441-1.442,1.441H5.743c-0.796,0-1.442-0.646-1.442-1.442l0-26.575c0-0.796,0.646-1.442,1.442-1.442h13.085  C19.624,63.91,20.269,64.556,20.269,65.352z"/><text x="0" y="113" fill="#000000" font-size="5px" font-weight="bold" font-family="'Helvetica Neue', Helvetica, Arial-Unicode, Arial, Sans-serif">Created by Good Wife</text><text x="0" y="118" fill="#000000" font-size="5px" font-weight="bold" font-family="'Helvetica Neue', Helvetica, Arial-Unicode, Arial, Sans-serif">from the Noun Project</text></svg>
    </symbol>
  </defs>
</svg>