<svg xmlns="http://www.w3.org/2000/svg" data-name="Livello 1" viewBox="0 0 100 125" x="0px" y="0px"><path d="M83.97464,69.15566a38.966,38.966,0,0,0,2.81026-32.148,1.36608,1.36608,0,0,0-.0568-.16093A39.18529,39.18529,0,0,0,73.72371,19.05275a1.38189,1.38189,0,0,0-.32687-.25076,38.94727,38.94727,0,0,0-39.0641-4.526,1.39916,1.39916,0,0,0-.1992.08728A39.02253,39.02253,0,0,0,12.17788,59.57368c.00215.01312.00683.02523.00934.03822A39.0948,39.0948,0,0,0,25.55884,80.38254a1.391,1.391,0,0,0,.29235.23557,38.8212,38.8212,0,0,0,24.148,8.39408l.00016,0h.00082A39.03568,39.03568,0,0,0,83.79721,69.46885,1.36836,1.36836,0,0,0,83.97464,69.15566Zm-2.38717-1.463a18.03039,18.03039,0,0,1-6.77195,2.67174c-4.38417.89743-11.85335,1.19722-22.54118-2.47425-6.30668-2.16632-11.76091-2.47232-16.2638-.92247-.25222-.60606-.49682-1.21709-.72714-1.83734a54.57366,54.57366,0,0,1-1.85315-6.08664q1.55306-.25793,3.19576-.56763a137.13837,137.13837,0,0,0,48.058-18.8944,36.17827,36.17827,0,0,1-3.09652,28.111ZM45.95162,85.98629a36.02487,36.02487,0,0,1-17.76125-7.09594,15.00871,15.00871,0,0,1,6.41452-8.22253A50.664,50.664,0,0,0,45.95162,85.98629Zm37.792-49.13191A134.15745,134.15745,0,0,1,36.19013,55.71051q-1.728.32858-3.35778.59441-.57372-2.96084-.873-6.0807,7.02842-2.90975,16.21718-11.59551c2.19085-2.07362,4.24725-4.4063,6.23616-6.66206,5.835-6.61832,10.8883-12.34147,17.65233-10.66108A36.39415,36.39415,0,0,1,83.74358,36.85438ZM13.78614,50a36.20719,36.20719,0,0,1,.8364-7.7444c.975,3.18819,2.97939,7.14837,7.0651,8.74309a10.33076,10.33076,0,0,0,3.789.68647,14.67923,14.67923,0,0,0,3.76384-.53043q.3,2.84985.82432,5.57642a112.79112,112.79112,0,0,1-15.3955,1.22745A36.2,36.2,0,0,1,13.78614,50Zm53.8651-31.61066C61.73181,19.43833,56.961,24.84482,52.31369,30.116c-1.94791,2.20917-3.96168,4.49362-6.061,6.48034-6.05224,5.72855-10.802,8.98251-14.51123,10.68311q-.13447-2.536-.09674-5.16089a89.25235,89.25235,0,0,1,4.26654-25.47937,36.17382,36.17382,0,0,1,31.74,1.75013ZM32.44306,18.3366a92.21669,92.21669,0,0,0-3.595,23.653q-.05423,3.23011.14954,6.33435a9.58541,9.58541,0,0,1-6.28431.0711c-5.498-2.1377-6.18752-10.75095-6.19708-10.87953a1.38137,1.38137,0,0,0-.2481-.69171A36.42825,36.42825,0,0,1,32.44306,18.3366ZM15.417,60.75705a116.31441,116.31441,0,0,0,15.23847-1.28078A57.489,57.489,0,0,0,32.643,66.05852c.25589.691.52909,1.37079.81065,2.04513-.0486.02694-.098.05242-.14632.07987a17.367,17.367,0,0,0-7.41487,8.81484A36.30032,36.30032,0,0,1,15.417,60.75705ZM50.49087,86.20763A48.20151,48.20151,0,0,1,37.1648,69.53475c3.86221-1.24636,8.62313-.91374,14.20062,1.00208a53.51962,53.51962,0,0,0,17.34429,3.22466,30.45209,30.45209,0,0,0,9.82936-1.49391A36.1717,36.1717,0,0,1,50.49087,86.20763Z"/><text x="0" y="115" fill="#000000" font-size="5px" font-weight="bold" font-family="'Helvetica Neue', Helvetica, Arial-Unicode, Arial, Sans-serif">Created by Francesco De Mento</text><text x="0" y="120" fill="#000000" font-size="5px" font-weight="bold" font-family="'Helvetica Neue', Helvetica, Arial-Unicode, Arial, Sans-serif">from the Noun Project</text></svg>