<svg xmlns="http://www.w3.org/2000/svg" xmlns:xlink="http://www.w3.org/1999/xlink" xml:space="preserve" style="shape-rendering:geometricPrecision;text-rendering:geometricPrecision;image-rendering:optimizeQuality;" viewBox="0 0 1.70666 2.133325" x="0px" y="0px" fill-rule="evenodd" clip-rule="evenodd"><defs><style type="text/css">
   
    .fil0 {fill:black}
   
  </style></defs><g><path class="fil0" d="M1.68664 1.42734l-1.66663 0c-0.0110394,0 -0.02,-0.00897244 -0.02,-0.02l0 -1.10803c0,-0.0110394 0.00896063,-0.02 0.02,-0.02l1.66663 0c0.0110394,0 0.02,0.00896063 0.02,0.02l0 1.10803c0,0.0110394 -0.00895276,0.02 -0.02,0.02zm-1.64663 -0.0400157l1.62663 0 0 -1.06802 -1.62663 0 0 1.06802z"/><path class="fil0" d="M0.853331 1.42735c-0.0110394,0 -0.02,-0.0089685 -0.02,-0.02l0 -0.30263c0,-0.0263307 0.04,-0.0263228 0.04,0l0 0.302638c0,0.0110394 -0.00896063,0.0199921 -0.02,0.0199921zm0 -0.805409c-0.0110394,0 -0.02,-0.00896063 -0.02,-0.02l0 -0.30263c0,-0.0263307 0.04,-0.0263307 0.04,0l0 0.30263c0,0.0110551 -0.00896063,0.02 -0.02,0.02z"/><path class="fil0" d="M1.68665 1.25722l-0.231843 0c-0.138878,0 -0.251874,-0.112984 -0.251874,-0.251862l0 -0.304063c0,-0.138878 0.113004,-0.251846 0.251874,-0.251846l0.231843 0c0.0110394,0 0.02,0.00896063 0.02,0.02l0 0.767772c0,0.0110394 -0.00896063,0.02 -0.02,0.02zm-0.231843 -0.767772c-0.116819,0 -0.211862,0.0950394 -0.211862,0.211846l0 0.304063c0,0.116819 0.0950394,0.211846 0.211862,0.211846l0.211843 0 0 -0.727756 -0.211843 0z"/><path class="fil0" d="M1.68665 1.03769l-0.268165 0c-0.0110394,0 -0.02,-0.00897244 -0.02,-0.02l0 -0.328724c0,-0.0110394 0.00897244,-0.02 0.02,-0.02l0.268165 0c0.0110394,0 0.02,0.00896063 0.02,0.02l0 0.328724c0,0.0110394 -0.00896063,0.02 -0.02,0.02zm-0.24815 -0.04l0.22815 0 0 -0.288724 -0.22815 0 0 0.288724z"/><path class="fil0" d="M0.251866 1.25722l-0.231862 0c-0.0110394,0 -0.02,-0.00897244 -0.02,-0.02l0 -0.767772c0,-0.0110394 0.00896063,-0.02 0.02,-0.02l0.231862 0c0.138874,0 0.251843,0.112984 0.251843,0.251846l0 0.304063c1.1811e-005,0.138878 -0.112972,0.251862 -0.251843,0.251862zm-0.211862 -0.0400157l0.211862 0c0.116815,0 0.211846,-0.0950276 0.211846,-0.211846l-7.87402e-006 -0.304063c0,-0.116819 -0.0950394,-0.211846 -0.211846,-0.211846l-0.211854 0 0 0.727756z"/><path class="fil0" d="M0.288181 1.03769l-0.268177 0c-0.0110394,0 -0.02,-0.00897244 -0.02,-0.02l0 -0.328724c0,-0.0110394 0.00896063,-0.02 0.02,-0.02l0.268165 0c0.0110394,0 0.02,0.00896063 0.02,0.02l0 0.328724c1.1811e-005,0.0110394 -0.00894488,0.02 -0.0199882,0.02zm-0.248177 -0.04l0.228165 0 0 -0.288724 -0.228165 0 0 0.288724z"/><path class="fil0" d="M0.826024 1.12323c-0.00802756,0 -0.0156142,-0.00487795 -0.0186693,-0.0128031 -0.0605906,-0.157138 -0.060748,-0.356811 -0.000385827,-0.514106 0.00943701,-0.0245866 0.0467717,-0.0102598 0.0373425,0.0143228 -0.0567717,0.148035 -0.0567362,0.337539 0.000362205,0.48537 0.00507087,0.0131339 -0.00485039,0.0272165 -0.0186496,0.0272165z"/><path class="fil0" d="M1.00712 1.07216c-0.00343307,0 -0.00690157,-0.000874016 -0.0100827,-0.00273228 -0.16515,-0.0965157 -0.164846,-0.335961 0,-0.432197 0.0227323,-0.0132677 0.0429213,0.0212402 0.0201772,0.0345236 -0.138606,0.0809685 -0.138618,0.282157 0,0.363122 0.0176102,0.0102874 0.010122,0.0372835 -0.0100945,0.0372835z"/><path class="fil0" d="M0.85311 0.939315c-0.0917638,0 -0.180917,-0.016374 -0.257819,-0.0473346 -0.0244173,-0.00982677 -0.00950787,-0.0469331 0.0149449,-0.0371063 0.147646,0.0593386 0.338665,0.0592874 0.486213,-0.000177165 0.0244094,-0.00983858 0.0393858,0.0272165 0.0149724,0.0370787 -0.0770118,0.0311063 -0.166331,0.0475394 -0.258311,0.0475394z"/><path class="fil0" d="M0.63226 0.993118c-0.0158189,0 -0.0255512,-0.017815 -0.0165827,-0.0311654 0.0440787,-0.0655984 0.0440748,-0.151709 0,-0.21726 -0.0146929,-0.0218583 0.0185,-0.0441535 0.0331929,-0.0223071 0.0818346,0.12172 0.0159567,0.270732 -0.0166102,0.270732z"/><path class="fil0" d="M0.853331 1.1247c-0.149638,0 -0.271374,-0.121748 -0.271374,-0.271374 0,-0.149638 0.121736,-0.27139 0.271374,-0.27139 0.149626,0 0.27137,0.121736 0.27137,0.27139 0,0.149626 -0.121744,0.271374 -0.27137,0.271374zm0 -0.502764c-0.127587,0 -0.231374,0.103807 -0.231374,0.23139 0,0.127583 0.103787,0.231358 0.231374,0.231358 0.127583,0 0.231354,-0.103791 0.231354,-0.231358 0,-0.127583 -0.103772,-0.23139 -0.231354,-0.23139z"/></g><text x="0" y="16.70666" fill="#000000" font-size="5px" font-weight="bold" font-family="'Helvetica Neue', Helvetica, Arial-Unicode, Arial, Sans-serif">Created by Amir Ali</text><text x="0" y="21.70666" fill="#000000" font-size="5px" font-weight="bold" font-family="'Helvetica Neue', Helvetica, Arial-Unicode, Arial, Sans-serif">from the Noun Project</text></svg>