<svg xmlns="http://www.w3.org/2000/svg" viewBox="0 0 64 80" x="0px" y="0px"><g><path d="M41.63,15.85,35.91,14.5l-3.06-5h-1.7l-3.06,5-5.72,1.35-.53,1.63,3.83,4.46-.47,5.85,1.38,1L32,26.53l5.42,2.27,1.38-1-.47-5.85,3.83-4.46ZM36.54,21l-.24.73.38,4.64-4.3-1.79h-.76l-4.3,1.79.38-4.64L27.46,21l-3-3.53L29,16.35l.62-.46,2.42-4,2.42,4,.62.46,4.53,1.07Z"/><path d="M52.16,8.42,53,2.13,52,1H12L11,2.13l.83,6.29C6.52,10,3.16,16.16,4.1,23S9.87,34.78,15.33,35L16,40.13l1.65.62s1.63-1.2,8.89-1.61L23.64,53.67a20.09,20.09,0,0,0-5.09,1.44L18,56v6l1,1H45l1-1V56l-.55-.89a20.09,20.09,0,0,0-5.09-1.44L37.45,39.14c7.17.41,8.83,1.57,8.84,1.57h0l1.7-.58L48.67,35C54.13,34.78,59,29.74,59.9,23S57.48,10,52.16,8.42ZM6.08,22.73c-.79-5.72,1.82-10.88,6-12.3l3,22.5C10.7,32.6,6.86,28.36,6.08,22.73ZM44,61H20V56.67a24.08,24.08,0,0,1,4.65-1.14A47.16,47.16,0,0,1,32,55a47.16,47.16,0,0,1,7.35.53h0A24.12,24.12,0,0,1,44,56.67Zm-6-7.67-.53,0-1.2-.11-.61-.05-1.26-.06-.57,0c-.61,0-1.23,0-1.87,0s-1.26,0-1.87,0l-.57,0c-.43,0-.84,0-1.26.06l-.61.05-1.2.11-.53,0-.21,0L28.6,39.06l.93,0H30c1.31,0,2.67,0,4,0h.48l.93,0,2.85,14.29Zm8.15-14.84c-1.51-.54-4.43-1.19-9.93-1.41-2.69-.11-5.83-.11-8.52,0-5.5.22-8.42.87-9.93,1.41L13.14,3H50.86ZM57.92,22.73c-.78,5.63-4.63,9.86-9,10.2l3-22.5C56.1,11.85,58.71,17,57.92,22.73Z"/></g><text x="0" y="79" fill="#000000" font-size="5px" font-weight="bold" font-family="'Helvetica Neue', Helvetica, Arial-Unicode, Arial, Sans-serif">Created by Iconbox</text><text x="0" y="84" fill="#000000" font-size="5px" font-weight="bold" font-family="'Helvetica Neue', Helvetica, Arial-Unicode, Arial, Sans-serif">from the Noun Project</text></svg>