<svg xmlns="http://www.w3.org/2000/svg" xmlns:xlink="http://www.w3.org/1999/xlink" xml:space="preserve" version="1.1" style="shape-rendering:geometricPrecision;text-rendering:geometricPrecision;image-rendering:optimizeQuality;" viewBox="0 0 342 466.25" x="0px" y="0px" fill-rule="evenodd" clip-rule="evenodd"><defs><style type="text/css">
   
    .fil1 {fill:black}
    .fil0 {fill:black;fill-rule:nonzero}
   
  </style></defs><g><path class="fil0" d="M172 191l3 57 30 54c5,9 2,21 -7,27l-50 36c-22,15 -46,-18 -24,-34l36 -25 -16 -29 -18 42c-2,5 -6,8 -10,10l-67 40c-23,14 -44,-21 -21,-35l63 -37 18 -43 -4 -73 -42 -1c-5,0 -9,-2 -12,-6l-46 -53c-14,-16 11,-38 25,-21l41 47 66 2c1,0 3,0 4,1l112 26c21,5 13,37 -8,32l-73 -17z"/><circle class="fil1" cx="126" cy="106" r="38"/><path class="fil1" d="M35 34c19,0 35,16 35,35 0,20 -16,35 -35,35 -19,0 -35,-15 -35,-35 0,-19 16,-35 35,-35zm0 8c15,0 28,12 28,27 0,16 -13,28 -28,28 -15,0 -28,-12 -28,-28 0,-15 13,-27 28,-27z"/><path class="fil1" d="M276 114l-4 6 -7 -12 8 -12 5 9 -2 9zm60 -70l-143 0 18 101 61 0 23 -88 41 0 0 -13zm-136 13l6 0 1 3 -6 7 -1 -10zm14 0l12 0 3 5 -8 11 -9 -13 2 -3zm23 0l9 0 5 8 -8 11 -9 -14 3 -5zm13 0l6 0 -3 4 -3 -4zm11 0l7 0 3 4 -9 13 -7 -9 6 -8zm17 0l13 0 -2 8 -5 7 -8 -11 2 -4zm2 43l-5 -7 10 -15 0 1 -5 21zm-78 -28l8 -9 9 14 -8 11 -8 -11 -1 -5zm3 14l3 5 -2 3 -1 -8zm2 14l4 -5 9 14 -7 11 -3 -5 -3 -15zm5 28l1 -1 7 10 -2 4 -4 0 -2 -13zm15 13l-2 -4 7 -11 8 12 -2 3 -11 0zm19 0l-1 -3 7 -11 8 12 -2 2 -12 0zm20 0l-2 -2 8 -13 0 1 -3 14 -3 0zm16 -66l-9 15 -9 -12 10 -14 8 11zm-12 18l-8 12 -8 -12 8 -12 8 12zm-10 -15l-8 11 -7 -10 8 -11 7 10zm10 45l-8 12 -8 -11 8 -12 8 11zm-10 -15l-8 12 -8 -12 8 -12 8 12zm-10 -15l-8 12 -7 -10 8 -12 7 10zm-9 -14l-8 12 -10 -14 8 -12 10 14zm-20 1l9 15 -7 11 -10 -15 8 -11zm12 18l6 10 -7 12 -7 -11 8 -11zm9 14l8 12 -8 11 -8 -12 8 -11zm-19 1l7 10 -8 11 -7 -11 8 -10z"/><rect class="fil1" x="317" width="24.6295" height="162.686"/></g><text x="0" y="388" fill="#000000" font-size="5px" font-weight="bold" font-family="'Helvetica Neue', Helvetica, Arial-Unicode, Arial, Sans-serif">Created by indra anis</text><text x="0" y="393" fill="#000000" font-size="5px" font-weight="bold" font-family="'Helvetica Neue', Helvetica, Arial-Unicode, Arial, Sans-serif">from the Noun Project</text></svg>