<svg xmlns="http://www.w3.org/2000/svg" xmlns:xlink="http://www.w3.org/1999/xlink" version="1.1" x="0px" y="0px" viewBox="0 0 98 122.5" style="enable-background:new 0 0 98 98;" xml:space="preserve"><style type="text/css">
	.st0{fill-rule:evenodd;clip-rule:evenodd;}
</style><path class="st0" d="M89.827,59.562c-2.001-2.871-4.58-5.103-7.473-6.651V28.153c0-0.796-0.646-1.442-1.442-1.442H67.827  c-0.796,0-1.442,0.646-1.442,1.442v22.982c-1.621,0.45-3.208,1.097-4.726,1.947v-2.117c0-0.796-0.646-1.442-1.442-1.442H47.133  c-0.796,0-1.442,0.646-1.442,1.442v40.963c0,0.796,0.646,1.442,1.442,1.442h13.084c0.797,0,1.442-0.645,1.443-1.441v-1.254  c2.063,1.151,4.327,1.962,6.721,2.389c1.278,0.229,2.558,0.341,3.829,0.341c4.361,0,8.612-1.326,12.265-3.872  c4.718-3.287,7.872-8.216,8.883-13.877C94.369,69.995,93.115,64.28,89.827,59.562z M87.461,61.21c0.36,0.517,0.692,1.047,0.995,1.59  c-0.137-0.042-0.275-0.077-0.415-0.107c-1.209-0.258-2.454-0.072-3.715,0.554c-0.36-0.592-0.738-1.178-1.135-1.754  c1.172-0.48,2.345-0.913,3.511-1.296C86.965,60.523,87.218,60.861,87.461,61.21z M80.51,55.203l0.009,0.003  c1.426,0.712,2.772,1.612,3.995,2.693c-1.034,0.369-2.07,0.774-3.106,1.214c-0.717-0.88-1.47-1.721-2.254-2.518  C79.697,56.162,80.15,55.698,80.51,55.203z M77.677,54.068c-0.193,0.179-0.413,0.356-0.662,0.529  c-0.404-0.346-0.814-0.682-1.23-1.007C76.423,53.716,77.055,53.876,77.677,54.068z M60.834,57.064  c0.171-0.081,0.324-0.195,0.451-0.334c0.072-0.052,0.145-0.104,0.219-0.155c1.984-1.383,4.144-2.325,6.366-2.848  c0.187-0.005,0.364-0.046,0.527-0.116c0.593-0.122,1.19-0.214,1.788-0.276c1.373,0.755,2.699,1.638,3.964,2.634  c-1.965,0.662-4.088,0.935-6.295,1.217c-3.097,0.397-6.45,0.827-9.741,2.421C58.924,58.679,59.835,57.827,60.834,57.064z   M53.81,68.594c0.168-0.939,0.404-1.854,0.704-2.74c4.234-4.594,8.837-5.185,13.704-5.809c2.797-0.358,5.671-0.727,8.368-1.938  c0.729,0.708,1.43,1.457,2.1,2.243c-3.043,1.474-6.047,3.235-8.918,5.236c-5.85,4.077-10.843,8.904-14.558,14.056  C53.631,76.213,53.132,72.389,53.81,68.594z M67.574,89.943c-2.275-0.574-4.39-1.559-6.261-2.898  c-0.14-0.163-0.316-0.295-0.515-0.383c-1.494-1.151-2.82-2.537-3.929-4.129c-0.027-0.039-0.053-0.077-0.08-0.116  c3.588-5.296,8.63-10.285,14.629-14.466c2.924-2.037,5.989-3.813,9.084-5.273c0.069,0.097,0.139,0.195,0.207,0.294  c0.449,0.645,0.874,1.301,1.272,1.967c-3.1,3.001-4.741,7.845-6.332,12.544C73.672,83.319,71.802,88.837,67.574,89.943z   M85.962,84.422c-0.929,1.017-1.978,1.939-3.136,2.745c-3.15,2.196-6.815,3.344-10.575,3.354c2.97-2.793,4.568-7.509,6.127-12.116  c1.369-4.042,2.778-8.201,5.04-10.797C86.102,73.185,87.042,79.182,85.962,84.422z M90.52,75.148  c-0.259,1.449-0.679,2.842-1.249,4.159c-0.117-4.473-1.336-9.148-3.545-13.538c0.62-0.286,1.187-0.371,1.714-0.258  c1.013,0.216,2.071,1.23,3.064,2.936C90.91,70.632,90.922,72.895,90.52,75.148z M40.964,42.674v49.254  c-0.001,0.796-0.646,1.441-1.442,1.441H26.438c-0.796,0-1.442-0.646-1.442-1.442V42.674c0-0.796,0.646-1.442,1.442-1.442h13.085  C40.319,41.233,40.964,41.878,40.964,42.674z M7.311,58.505c-1.273-1.273-2.06-3.031-2.06-4.974c0-1.943,0.787-3.701,2.06-4.974  c1.273-1.273,3.031-2.06,4.974-2.06c0.755,0,1.483,0.119,2.164,0.339l13.234-17.497c-1.081-1.237-1.737-2.856-1.737-4.627  c0-1.942,0.788-3.701,2.06-4.974c1.273-1.273,3.031-2.06,4.974-2.06c1.943,0,3.701,0.788,4.974,2.06  c1.273,1.273,2.06,3.031,2.06,4.974c0,0.46-0.044,0.909-0.128,1.345l9.171,5.294c1.236-1.076,2.852-1.728,4.619-1.728  c1.071,0,2.085,0.239,2.994,0.667l12.163-14.338c-0.93-1.193-1.485-2.693-1.485-4.323c0-1.942,0.787-3.701,2.06-4.974  c1.273-1.273,3.031-2.06,4.974-2.06c1.942,0,3.701,0.788,4.974,2.06c1.273,1.273,2.06,3.031,2.06,4.974  c0,1.943-0.787,3.701-2.06,4.974c-1.273,1.273-3.031,2.06-4.974,2.06c-1.216,0-2.359-0.309-3.357-0.852L58.965,32.023  c1.084,1.237,1.741,2.858,1.741,4.633c0,1.943-0.787,3.701-2.06,4.974c-1.273,1.273-3.031,2.06-4.974,2.06  c-1.943,0-3.701-0.787-4.974-2.06c-1.273-1.273-2.06-3.031-2.06-4.974c0-1.073,0.24-2.089,0.67-3L38.76,28.72  c-0.239,0.345-0.51,0.669-0.806,0.965c-1.273,1.273-3.031,2.06-4.974,2.06c-1.074,0-2.093-0.24-3.003-0.671L16.965,48.28  c0.101,0.089,0.198,0.182,0.294,0.277c1.273,1.273,2.06,3.031,2.06,4.974c0,1.942-0.788,3.701-2.06,4.974  c-1.273,1.273-3.031,2.06-4.974,2.06C10.343,60.565,8.584,59.778,7.311,58.505z M20.269,65.352v26.576  c0,0.796-0.646,1.441-1.442,1.441H5.743c-0.796,0-1.442-0.646-1.442-1.442l0-26.575c0-0.796,0.646-1.442,1.442-1.442h13.085  C19.624,63.91,20.269,64.556,20.269,65.352z"/><text x="0" y="113" fill="#000000" font-size="5px" font-weight="bold" font-family="'Helvetica Neue', Helvetica, Arial-Unicode, Arial, Sans-serif">Created by Good Wife</text><text x="0" y="118" fill="#000000" font-size="5px" font-weight="bold" font-family="'Helvetica Neue', Helvetica, Arial-Unicode, Arial, Sans-serif">from the Noun Project</text></svg>